# xmcd CD database file
#
# Track frame offsets:
#	150
#	19783
#	39973
#
# Disc length: 823 seconds
#
# Revision: 0
# Processed by: cddbd v1.5.1PL0 Copyright (c) Steve Scherf et al.
# Submitted via: CDex 1.60beta1
#
DISCID=17033503
DTITLE=Fanta Zero Coaster - Hey Girl
DYEAR=2001
DGENRE=Japanese Pop
TTITLE0=Hey Girl
TTITLE1=バイバイnight
TTITLE2=ありがとう
EXTD=YEAR: 2001
EXTT0=
EXTT1=
EXTT2=
PLAYORDER=
